<svg width="13" height="13" viewBox="0 0 13 13" fill="none" xmlns="http://www.w3.org/2000/svg">
<path d="M6.00122 12.0274C4.36122 12.0274 4.16789 12.0188 3.52789 11.9908C3.0288 11.9743 2.53618 11.8729 2.07122 11.6908C1.26676 11.3777 0.630648 10.7413 0.317887 9.93675C0.142758 9.47011 0.0482993 8.97708 0.038554 8.47875C0.0012207 7.84009 0.0012207 7.63075 0.0012207 6.00342C0.0012207 4.35875 0.00988737 4.16675 0.038554 3.53009C0.0485125 3.03243 0.142968 2.54009 0.317887 2.07408C0.630308 1.26844 1.26745 0.631533 2.07322 0.319418C2.53898 0.143553 3.03145 0.0488475 3.52922 0.039418C4.16589 0.00341797 4.37522 0.00341797 6.00122 0.00341797C7.65455 0.00341797 7.84455 0.0120846 8.47455 0.039418C8.97361 0.0489291 9.46738 0.143624 9.93455 0.319418C10.7401 0.631887 11.3771 1.26867 11.6899 2.07408C11.868 2.54688 11.9629 3.04692 11.9706 3.55208C12.0079 4.19075 12.0079 4.39942 12.0079 6.02609C12.0079 7.65275 11.9986 7.86609 11.9706 8.49742C11.9606 8.99622 11.8659 9.4897 11.6906 9.95675C11.377 10.7619 10.7399 11.3985 9.93455 11.7114C9.46805 11.8862 8.97529 11.9807 8.47722 11.9908C7.84055 12.0274 7.63189 12.0274 6.00122 12.0274ZM5.97855 1.05875C4.34789 1.05875 4.17855 1.06675 3.54189 1.09542C3.16188 1.10045 2.78554 1.17058 2.42922 1.30275C1.90306 1.50409 1.48671 1.91875 1.28322 2.44408C1.15003 2.80428 1.07989 3.18474 1.07589 3.56875C1.04055 4.21475 1.04055 4.38409 1.04055 6.00342C1.04055 7.60342 1.04655 7.79742 1.07589 8.43942C1.08186 8.81955 1.15195 9.19595 1.28322 9.55275C1.487 10.0777 1.90328 10.4921 2.42922 10.6934C2.7853 10.8265 3.16179 10.8966 3.54189 10.9008C4.18722 10.9381 4.35722 10.9381 5.97855 10.9381C7.61389 10.9381 7.78322 10.9301 8.41455 10.9008C8.79482 10.8961 9.17144 10.826 9.52789 10.6934C10.0509 10.4903 10.4645 10.0769 10.6679 9.55409C10.8008 9.19359 10.8709 8.81296 10.8752 8.42875H10.8826C10.9112 7.79142 10.9112 7.62142 10.9112 5.99275C10.9112 4.36409 10.9039 4.19275 10.8752 3.55609C10.8692 3.17639 10.7991 2.80043 10.6679 2.44408C10.465 1.92047 10.0513 1.50628 9.52789 1.30275C9.17152 1.16991 8.79485 1.09977 8.41455 1.09542C7.76989 1.05875 7.60122 1.05875 5.97855 1.05875ZM6.00122 9.08275C4.75455 9.08356 3.63017 8.33324 3.15246 7.18172C2.67476 6.0302 2.93782 4.70431 3.81897 3.82239C4.70012 2.94048 6.02579 2.67627 7.17773 3.15297C8.32966 3.62968 9.08095 4.75341 9.08122 6.00009C9.07939 7.70079 7.70193 9.07945 6.00122 9.08275ZM6.00122 3.99875C4.89665 3.99875 4.00122 4.89418 4.00122 5.99875C4.00122 7.10332 4.89665 7.99875 6.00122 7.99875C7.10579 7.99875 8.00122 7.10332 8.00122 5.99875C7.99865 4.89525 7.10473 4.00132 6.00122 3.99875ZM9.20122 3.52342C8.80484 3.52195 8.48449 3.19981 8.48522 2.80342C8.48596 2.40704 8.8075 2.08609 9.20389 2.08609C9.60027 2.08609 9.92182 2.40703 9.92255 2.80342C9.92273 2.99466 9.84675 3.1781 9.7114 3.3132C9.57604 3.44831 9.39246 3.52395 9.20122 3.52342Z" fill="#2E3A59"/>
</svg>
